HIERARCHY
ROOT RootJoint
{
    OFFSET   0.000000   0.000000   0.000000
    CHANNELS 6 Xposition Yposition Zposition Xrotation Yrotation Zrotation
    JOINT pelvis_lowerback
    {
        OFFSET   0.000000   0.093605   0.000000
        CHANNELS 3 Xrotation Yrotation Zrotation
        JOINT lowerback_torso
        {
            OFFSET   0.000000   0.100000   0.000000
            CHANNELS 3 Xrotation Yrotation Zrotation
            JOINT torso_head
            {
                OFFSET   0.000000   0.282350   0.000000
                CHANNELS 3 Xrotation Yrotation Zrotation
                End Site
                {
                    OFFSET   0.000000   0.192650   0.000000
                }
            }
            JOINT rTorso_Clavicle
            {
                OFFSET  -0.001000   0.157500   0.000000
                CHANNELS 3 Xrotation Yrotation Zrotation
                JOINT rShoulder
                {
                    OFFSET  -0.117647   0.000000   0.000000
                    CHANNELS 3 Xrotation Yrotation Zrotation
                    JOINT rElbow
                    {
                        OFFSET  -0.245000   0.000000   0.000000
                        CHANNELS 3 Xrotation Yrotation Zrotation
                        JOINT rWrist
                        {
                            OFFSET  -0.240000   0.000000   0.000000
                            CHANNELS 3 Xrotation Yrotation Zrotation
                            End Site
                            {
                                OFFSET  -0.116353  -0.002500   0.000000
                            }
                        }
                    }
                }
            }
            JOINT lTorso_Clavicle
            {
                OFFSET   0.001000   0.157500   0.000000
                CHANNELS 3 Xrotation Yrotation Zrotation
                JOINT lShoulder
                {
                    OFFSET   0.117647   0.000000   0.000000
                    CHANNELS 3 Xrotation Yrotation Zrotation
                    JOINT lElbow
                    {
                        OFFSET   0.245000   0.000000   0.000000
                        CHANNELS 3 Xrotation Yrotation Zrotation
                        JOINT lWrist
                        {
                            OFFSET   0.240000   0.000000   0.000000
                            CHANNELS 3 Xrotation Yrotation Zrotation
                            End Site
                            {
                                OFFSET   0.116353  -0.002500   0.000000
                            }
                        }
                    }
                }
            }
        }
    }
    JOINT rHip
    {
        OFFSET  -0.100000  -0.051395   0.000000
        CHANNELS 3 Xrotation Yrotation Zrotation
        JOINT rKnee
        {
            OFFSET   0.000000  -0.410000   0.000000
            CHANNELS 3 Xrotation Yrotation Zrotation
            JOINT rAnkle
            {
                OFFSET   0.000000  -0.390000   0.000000
                CHANNELS 3 Xrotation Yrotation Zrotation
                JOINT rToeJoint
                {
                    OFFSET   0.000000  -0.050000   0.130000
                    CHANNELS 3 Xrotation Yrotation Zrotation
                    End Site
                    {
                        OFFSET  -0.010000   0.002000   0.060000
                    }
                }
            }
        }
    }
    JOINT lHip
    {
        OFFSET   0.100000  -0.051395   0.000000
        CHANNELS 3 Xrotation Yrotation Zrotation
        JOINT lKnee
        {
            OFFSET   0.000000  -0.410000   0.000000
            CHANNELS 3 Xrotation Yrotation Zrotation
            JOINT lAnkle
            {
                OFFSET   0.000000  -0.390000   0.000000
                CHANNELS 3 Xrotation Yrotation Zrotation
                JOINT lToeJoint
                {
                    OFFSET   0.000000  -0.050000   0.130000
                    CHANNELS 3 Xrotation Yrotation Zrotation
                    End Site
                    {
                        OFFSET   0.010000   0.002000   0.060000
                    }
                }
            }
        }
    }
}
MOTION
Frames: 5
Frame Time:   0.008333
 -2.040178   0.889765   4.305740 -175.655083  37.853711 173.970958   5.003082   5.468844   1.852211   3.801397   5.167734   4.802299   1.043936  -1.777871   2.177388  -1.502617   6.307369  -0.181486 -12.341573  16.979474  46.788550 179.995313  82.535103 179.995815   2.055291   5.412598 -11.423729  10.156991   7.685682   3.485638  32.436357  -4.493955 -45.608786  -0.191923 -88.301570  -0.187901   3.944385  -2.996893   4.692278   1.429410  -1.585504  -2.015442  26.909203   0.009804  -0.003778 -19.285011  -2.720341   0.966006  -5.549326  -0.003265   0.001812 -18.641635  -6.031661   9.037441  26.756056  -0.009713   0.015616  -4.855193   5.413683   1.110551  -0.993761   0.002205  -0.002093
 -2.041791   0.891140   4.300703 -175.848069  37.824484 174.905440   4.860675   5.423840   1.516536   3.798625   5.094696   4.523212   1.001927  -1.561432   2.016041  -1.263789   6.102559  -0.147005 -11.421731  16.743759  47.285820 -179.993005  83.293613 179.979336   2.159440   5.766725 -11.479953   9.984599   7.519287   3.481508  31.536678  -4.674637 -45.631779  -0.337652 -88.755245  -0.333587   3.876798  -2.829032   4.727370   0.392895  -1.519113  -3.238682  29.097648   0.014929  -0.005411 -18.998983  -2.903957   1.063919  -5.729466  -0.003233   0.001661 -18.205839  -5.668069   7.931343  25.768578  -0.011163   0.013414  -4.478992   5.504259   1.197964  -0.751287   0.002348  -0.001691
 -2.043374   0.892395   4.295693 -175.975912  37.636844 175.793184   4.736258   5.301937   1.232387   3.812794   4.943417   4.243448   0.959075  -1.349298   1.842618  -0.942267   5.848014  -0.085146 -10.462359  16.473534  47.750467 -179.981124  84.070790 179.963254   2.194015   5.777557 -11.435390   9.745846   7.301702   3.454305  30.614870  -4.889355 -45.659765  -0.640651 -89.215175  -0.636441   3.821121  -2.822407   4.927520  -0.639715  -1.419796  -4.420357  31.351956   0.019927  -0.004408 -18.692061  -3.055613   1.159027  -5.503972  -0.001853   0.001361 -17.717063  -5.382665   6.807642  24.752011  -0.012504   0.010782  -4.080265   5.499390   1.279109  -0.527487   0.002443  -0.001369
 -2.044869   0.893482   4.290740 -176.056457  37.390629 176.617078   4.612903   5.136174   0.988114   3.830025   4.742677   3.992085   0.917529  -1.149409   1.678117  -0.594914   5.573103  -0.005102  -9.519922  16.202556  48.191146 -179.972959  84.817496 179.952062   2.194320   5.624079 -11.333468   9.493840   7.066370   3.412098  29.723191  -5.113470 -45.692456  -1.630726 -89.658652  -1.626273   3.775502  -2.918933   5.174443  -1.621504  -1.290596  -5.526487  33.521933   0.023519  -0.002807 -18.375433  -3.184454   1.248238  -4.940361   0.000245   0.001473 -17.211600  -5.144868   5.718020  23.780415  -0.013333   0.008224  -3.706505   5.447514   1.350772  -0.322125   0.002477  -0.001109
 -2.046292   0.894399   4.285874 -176.099369  37.147464 177.379903   4.490985   4.949516   0.777029   3.843713   4.519656   3.768645   0.877032  -0.962345   1.525108  -0.247596   5.295712   0.082840  -8.616967  15.942664  48.608082 -179.969452  85.523231 179.946673   2.181021   5.407270 -11.211924   9.245581   6.829594   3.362059  28.876421  -5.334669 -45.728386 -172.657622 -89.920420 -172.652863   3.736118  -3.061591   5.426451  -2.560330  -1.149213  -6.575233  35.558376   0.025511  -0.002064 -18.067517  -3.318769   1.324839  -4.292105   0.002162   0.001377 -16.701240  -4.930768   4.677008  22.873638  -0.013636   0.006067  -3.371185   5.383202   1.413073  -0.133790   0.002456  -0.000901
